<?xml version="1.0" encoding="UTF-8"?>
<!DOCTYPE svg PUBLIC "-//W3C//DTD SVG 1.1//EN" "http://www.w3.org/Graphics/SVG/1.1/DTD/svg11.dtd">
<svg xmlns="http://www.w3.org/2000/svg" version="1.1" width="200px" height="200px" style="shape-rendering:geometricPrecision; text-rendering:geometricPrecision; image-rendering:optimizeQuality; fill-rule:evenodd; clip-rule:evenodd" xmlns:xlink="http://www.w3.org/1999/xlink">
<g><path style="opacity:1" fill="#0b0b0b" d="M 92.5,-0.5 C 92.8333,-0.5 93.1667,-0.5 93.5,-0.5C 93.5,30.8333 93.5,62.1667 93.5,93.5C 68.8311,93.6666 44.1644,93.5 19.5,93C 36.0755,84.8692 52.7422,77.0358 69.5,69.5C 76.2163,48.4018 83.2163,27.4018 90.5,6.5C 92.2132,5.36465 92.8799,3.69798 92.5,1.5C 92.5,0.833333 92.5,0.166667 92.5,-0.5 Z"/></g>
<g><path style="opacity:0.906" fill="#7e7e7e" d="M 92.5,1.5 C 92.8799,3.69798 92.2132,5.36465 90.5,6.5C 90.7959,4.59699 91.4625,2.93033 92.5,1.5 Z"/></g>
<g><path style="opacity:1" fill="#0d0d0d" d="M 199.5,92.5 C 199.5,92.8333 199.5,93.1667 199.5,93.5C 168.167,93.5 136.833,93.5 105.5,93.5C 105.333,68.8311 105.5,44.1644 106,19.5C 114.131,36.0755 121.964,52.7422 129.5,69.5C 152.823,77.1595 176.156,84.8261 199.5,92.5 Z"/></g>
<g><path style="opacity:1" fill="#0b0b0b" d="M -0.5,106.5 C -0.5,106.167 -0.5,105.833 -0.5,105.5C 30.8333,105.5 62.1667,105.5 93.5,105.5C 93.6666,130.169 93.5,154.836 93,179.5C 85.0703,163.21 77.2369,146.876 69.5,130.5C 60.2237,126.964 50.8904,123.63 41.5,120.5C 40.3646,118.787 38.698,118.12 36.5,118.5C 26.4214,115.363 16.4214,112.029 6.5,108.5C 5.36465,106.787 3.69798,106.12 1.5,106.5C 0.833333,106.5 0.166667,106.5 -0.5,106.5 Z"/></g>
<g><path style="opacity:1" fill="#0e0e0e" d="M 106.5,199.5 C 106.167,199.5 105.833,199.5 105.5,199.5C 105.5,168.167 105.5,136.833 105.5,105.5C 130.169,105.333 154.836,105.5 179.5,106C 162.924,114.131 146.258,121.964 129.5,129.5C 121.841,152.823 114.174,176.156 106.5,199.5 Z"/></g>
<g><path style="opacity:0.929" fill="#7d7d7d" d="M 1.5,106.5 C 3.69798,106.12 5.36465,106.787 6.5,108.5C 4.59699,108.204 2.93033,107.537 1.5,106.5 Z"/></g>
<g><path style="opacity:0.918" fill="#7c7c7c" d="M 36.5,118.5 C 38.698,118.12 40.3646,118.787 41.5,120.5C 39.597,120.204 37.9303,119.537 36.5,118.5 Z"/></g>
</svg>
